<svg xmlns="http://www.w3.org/2000/svg" width="41" height="55.853" viewBox="0 0 41 55.853">
  <g id="coat-clothes-svgrepo-com" transform="translate(-67.077 1)">
    <path id="Path_173" data-name="Path 173" d="M81.55,459.8v.186l-1.862,4.468H75.965s-.093-1.769-.093-4.654Z" transform="translate(-7.836 -410.533)" fill="#fdcc00"/>
    <path id="Path_174" data-name="Path 174" d="M83.091,92.867a15.7,15.7,0,0,0-1.583,1.862c-6.889,10.705-5.585,42.82-5.585,42.82h3.723l2.7-6.516c-.931-26.158.745-38.073.745-38.166" transform="translate(-7.794 -83.627)" fill="#ffe100"/>
    <path id="Path_175" data-name="Path 175" d="M78.432,280.445h6.051v-8.378h-5.4c-.279,2.793-.559,5.678-.652,8.378" transform="translate(-10.117 -243.279)" fill="#63d3fd"/>
    <g id="Group_957" data-name="Group 957" transform="translate(74.271 -0.069)">
      <path id="Path_176" data-name="Path 176" d="M367.712,92.867a15.7,15.7,0,0,1,1.583,1.862c6.237,10.705,5.585,42.82,5.585,42.82h-3.723l-2.7-6.516c.931-26.158-.652-38.073-.745-38.166" transform="translate(-342.111 -83.558)" fill="#ffe100"/>
      <path id="Path_177" data-name="Path 177" d="M159.463,54.077h0c.838-26.065-.745-37.142-.745-37.235-1.024-1.024-2.234-2.048-3.072-1.862,0,0,1.024-7.447-9.309-7.447s-9.309,7.447-9.309,7.447c-.838-.186-1.955.838-2.979,1.862,0,.093-1.676,11.077-.745,37.235a9.436,9.436,0,0,0,7.447,3.723h11.264a9.437,9.437,0,0,0,7.447-3.723" transform="translate(-133.024 -7.533)" fill="#ffe100"/>
    </g>
    <g id="Group_958" data-name="Group 958" transform="translate(76.414 48.336)">
      <path id="Path_178" data-name="Path 178" d="M169.521,453.128H158.257a9.162,9.162,0,0,1-5.585-1.862v4.654a.879.879,0,0,0,.931.931h20.479a.879.879,0,0,0,.931-.931v-4.561a9.646,9.646,0,0,1-5.492,1.769" transform="translate(-152.672 -451.266)" fill="#fdcc00"/>
      <path id="Path_179" data-name="Path 179" d="M383.072,459.8v.186l1.862,4.468h3.723V459.8Z" transform="translate(-357.938 -458.869)" fill="#fdcc00"/>
    </g>
    <g id="Group_959" data-name="Group 959" transform="translate(74.273 7.37)">
      <path id="Path_180" data-name="Path 180" d="M133.324,114.832a9.068,9.068,0,0,0,6.33,3.63,71.35,71.35,0,0,0,2.048-17.594c0-10.147-1.862-19.176-4.747-25.134h0c-.652-.093-1.583.652-2.513,1.489-.093.186-.279.279-.372.372,0,0-1.024,7.261-1.024,22.807,0,4.189.093,9.03.279,14.429" transform="translate(-133.045 -75.728)" fill="#ffe100"/>
      <path id="Path_181" data-name="Path 181" d="M302.487,75.736h0c-2.886,5.958-4.747,14.987-4.747,25.134a71.355,71.355,0,0,0,2.048,17.594,9.457,9.457,0,0,0,6.423-3.63c.186-5.4.279-10.24.279-14.335,0-15.546-1.024-22.807-1.024-22.807l-.372-.372c-.931-.931-1.955-1.676-2.606-1.583" transform="translate(-279.773 -75.728)" fill="#ffe100"/>
    </g>
    <path id="Path_182" data-name="Path 182" d="M377.1,280.445h5.771c-.186-2.7-.372-5.585-.745-8.378H377.1q.14,3.77,0,8.378" transform="translate(-276.203 -243.279)" fill="#63d3fd"/>
    <path id="Path_183" data-name="Path 183" d="M370.148,94.728s-.745-.931-1.583-1.862c0,0,.093.931.279,2.886,5.585,11.636,5.027,41.8,5.027,41.8h1.862s.652-32.115-5.585-42.82" transform="translate(-268.6 -83.626)" fill="#ffa800"/>
    <path id="Path_184" data-name="Path 184" d="M408.827,272.067h-1.862c.279,2.793.559,5.678.745,8.378h1.862c-.186-2.7-.465-5.585-.745-8.378" transform="translate(-302.811 -243.279)" fill="#3db9f9"/>
    <path id="Path_185" data-name="Path 185" d="M81.3,94.728s.745-.931,1.583-1.862c0,0-.093.931-.279,2.886-5.585,11.636-5.027,41.8-5.027,41.8H75.713s-.652-32.115,5.585-42.82" transform="translate(-7.677 -83.626)" fill="#fff"/>
    <g id="Group_960" data-name="Group 960" transform="translate(74.273 28.788)">
      <path id="Path_186" data-name="Path 186" d="M141.7,275.79c0-1.3,0-2.513-.093-3.723h-8.564v8.378h8.471c.093-1.489.186-3.072.186-4.654" transform="translate(-133.045 -272.067)" fill="#63d3fd"/>
      <path id="Path_187" data-name="Path 187" d="M297.739,275.79c0,1.583.093,3.165.093,4.654H306.4v-8.378h-8.657v3.723" transform="translate(-279.773 -272.067)" fill="#63d3fd"/>
    </g>
    <path id="Path_188" data-name="Path 188" d="M71.853,130.877H68.129a.933.933,0,0,1-.931-.931c-.093-1.3-1.21-32.488,5.678-43.286.093-.093.838-1.024,1.769-1.955a.889.889,0,0,1,1.583.745c0,.093-1.676,11.915-.745,37.98a.56.56,0,0,1-.093.372l-2.7,6.516A.894.894,0,0,1,71.853,130.877Zm-2.886-1.862H71.2l2.42-5.771c-.652-18.431,0-29.788.465-34.908C68.5,98.111,68.874,123.9,68.967,129.016Z" transform="translate(0 -76.025)"/>
    <path id="Path_189" data-name="Path 189" d="M367.982,131.021h-3.723a.814.814,0,0,1-.838-.559l-2.7-6.516a.56.56,0,0,1-.093-.372c.838-26.158-.745-37.887-.745-37.98a.945.945,0,0,1,.465-.931.847.847,0,0,1,1.117.093,11.93,11.93,0,0,1,1.676,1.955l.093.093c6.237,10.8,5.678,41.983,5.678,43.286A.933.933,0,0,1,367.982,131.021Zm-3.165-1.862h2.234c0-5.12,0-30.533-5.027-40.586.465,5.213,1.024,16.57.465,34.815Z" transform="translate(-260.849 -76.169)"/>
    <path id="Path_190" data-name="Path 190" d="M144.414,51.129H133.151a10.272,10.272,0,0,1-8.192-4.1,1.324,1.324,0,0,1-.186-.559c-.931-26.344.745-37.235.745-37.328a.512.512,0,0,1,.279-.465,8.053,8.053,0,0,1,2.7-2.141,7.256,7.256,0,0,1,1.676-4.561C131.941.024,134.826-1,138.736-1s6.8,1.024,8.564,2.979a7.868,7.868,0,0,1,1.676,4.561,8.607,8.607,0,0,1,2.793,2.048,2.034,2.034,0,0,1,.279.465c0,.093,1.676,11.077.745,37.421a1.322,1.322,0,0,1-.186.559A10.272,10.272,0,0,1,144.414,51.129ZM126.635,46.1a8.485,8.485,0,0,0,6.516,3.165h11.264A8.485,8.485,0,0,0,150.93,46.1c.745-23.272-.465-34.536-.745-36.49-1.4-1.3-1.955-1.3-1.955-1.3a.949.949,0,0,1-.838-.186.938.938,0,0,1-.279-.838,5.487,5.487,0,0,0-1.3-4c-1.4-1.583-3.723-2.42-7.075-2.42s-5.771.838-7.075,2.327a5.592,5.592,0,0,0-1.3,4.1,1.3,1.3,0,0,1-.279.838,1.383,1.383,0,0,1-.838.186c-.093,0-.559.093-1.862,1.4C127.1,11.567,125.8,22.737,126.635,46.1Z" transform="translate(-51.151)"/>
    <path id="Path_191" data-name="Path 191" d="M166.479,450.111H146a1.867,1.867,0,0,1-1.862-1.862v-4.654a.9.9,0,0,1,.559-.838.856.856,0,0,1,.931.093,8.169,8.169,0,0,0,5.027,1.676h11.264a8.1,8.1,0,0,0,4.934-1.676.856.856,0,0,1,.931-.093.978.978,0,0,1,.465.838v4.654A1.735,1.735,0,0,1,166.479,450.111ZM146,445.27v2.979h20.479V445.27a9.72,9.72,0,0,1-4.561,1.117H150.654A10.094,10.094,0,0,1,146,445.27Z" transform="translate(-68.655 -395.258)"/>
    <path id="Path_192" data-name="Path 192" d="M381.055,457.783h-3.723a.814.814,0,0,1-.838-.559l-1.862-4.468a.7.7,0,0,1-.093-.372V452.2a.879.879,0,0,1,.931-.931h5.585a.879.879,0,0,1,.931.931v4.654A.933.933,0,0,1,381.055,457.783Zm-3.165-1.862h2.234v-2.793h-3.351Z" transform="translate(-273.922 -402.93)"/>
    <path id="Path_193" data-name="Path 193" d="M72.086,457.783H68.363a.933.933,0,0,1-.931-.931s-.093-1.862-.093-4.654a.954.954,0,0,1,.931-.931h5.678a.879.879,0,0,1,.931.931v.186a.56.56,0,0,1-.093.372l-1.862,4.468A.894.894,0,0,1,72.086,457.783ZM69.2,455.921h2.234l1.117-2.793H69.2Z" transform="translate(-0.234 -402.93)"/>
    <path id="Path_194" data-name="Path 194" d="M375.267,273.774H369.5a.954.954,0,0,1-.931-.931v-8.378a.954.954,0,0,1,.931-.931h5.027a.99.99,0,0,1,.931.838c.279,2.606.559,5.4.745,8.471a.845.845,0,0,1-.279.652A.725.725,0,0,1,375.267,273.774Zm-4.841-1.862h3.817c-.186-2.327-.372-4.468-.559-6.516h-3.258C370.52,267.444,370.52,269.678,370.427,271.912Z" transform="translate(-268.6 -235.677)"/>
    <path id="Path_195" data-name="Path 195" d="M76.787,273.774H70.83a.845.845,0,0,1-.652-.279,1.006,1.006,0,0,1-.279-.652c.186-2.979.372-5.865.652-8.471a.99.99,0,0,1,.931-.838h5.306a.954.954,0,0,1,.931.931v8.378a.845.845,0,0,1-.279.652A.725.725,0,0,1,76.787,273.774Zm-5.027-1.862h4.1V265.4H72.319C72.133,267.444,71.947,269.678,71.761,271.912Z" transform="translate(-2.514 -235.677)"/>
    <path id="Path_196" data-name="Path 196" d="M133.915,273.774h-8.471a.933.933,0,0,1-.931-.931v-8.378a1,1,0,0,1,.931-.931h8.564a.933.933,0,0,1,.931.931c.093,1.21.093,2.513.093,3.723,0,1.489-.093,3.072-.093,4.747A1.013,1.013,0,0,1,133.915,273.774Zm-7.54-1.862h6.7c.093-1.3.093-2.513.093-3.723,0-.931,0-1.862-.093-2.793h-6.7Z" transform="translate(-51.171 -235.677)"/>
    <path id="Path_197" data-name="Path 197" d="M298.794,273.774H290.23a.918.918,0,0,1-.931-.838c-.093-1.676-.093-3.258-.093-4.747,0-1.21,0-2.513.093-3.723a1,1,0,0,1,.931-.931h8.657a.933.933,0,0,1,.931.931v8.378A1.015,1.015,0,0,1,298.794,273.774Zm-7.633-1.862h6.8V265.4h-6.889c0,.931-.093,1.862-.093,2.793C291.068,269.4,291.068,270.609,291.161,271.912Z" transform="translate(-197.898 -235.677)"/>
    <path id="Path_198" data-name="Path 198" d="M155.465,205.663H153.6a.931.931,0,1,1,0-1.862h1.862a.879.879,0,0,1,.931.931A.933.933,0,0,1,155.465,205.663Z" transform="translate(-76.258 -182.46)"/>
    <path id="Path_199" data-name="Path 199" d="M131.959,111.763h-.093a10.358,10.358,0,0,1-6.889-4,1.324,1.324,0,0,1-.186-.559c-.186-5.027-.279-9.867-.279-14.429,0-15.639,1.024-22.9,1.024-22.993a.512.512,0,0,1,.279-.465l.372-.372c1.4-1.4,2.327-1.862,3.258-1.769.279,0,.559.279.745.559,3.072,6.33,4.841,15.639,4.841,25.506a72.352,72.352,0,0,1-2.141,17.873A.925.925,0,0,1,131.959,111.763Zm-5.306-4.934a8.269,8.269,0,0,0,4.654,2.886,71.675,71.675,0,0,0,1.862-16.57c0-9.309-1.583-17.966-4.282-24.017a8.3,8.3,0,0,0-1.3,1.117l-.093.093a214.308,214.308,0,0,0-1.024,22.434C126.374,97.241,126.467,101.988,126.653,106.829Z" transform="translate(-51.17 -60.726)"/>
    <path id="Path_200" data-name="Path 200" d="M292.185,111.774a.906.906,0,0,1-.931-.745,75.788,75.788,0,0,1-2.048-17.78c0-9.867,1.769-19.176,4.841-25.506a.8.8,0,0,1,.652-.559c.931-.093,1.955.465,3.351,1.769.186.093.279.279.465.372a2.034,2.034,0,0,1,.279.465c0,.093,1.024,7.354,1.024,22.993,0,4.561-.093,9.4-.279,14.429a1.322,1.322,0,0,1-.186.559,10.2,10.2,0,0,1-6.982,4Zm3.165-42.541c-2.7,6.051-4.282,14.708-4.282,24.017a71.67,71.67,0,0,0,1.862,16.57,7.891,7.891,0,0,0,4.747-2.979c.186-4.934.279-9.681.279-14.056a190.966,190.966,0,0,0-1.024-22.434l-.093-.093A8.456,8.456,0,0,0,295.35,69.233Z" transform="translate(-197.898 -60.738)"/>
    <path id="Path_201" data-name="Path 201" d="M180.66,8.681h-.093a.882.882,0,0,1-.838-.745c-.372-1.583-3.63-3.351-8.285-3.351s-7.912,1.769-8.285,3.351a.906.906,0,0,1-.931.745.821.821,0,0,1-.838-.745l-.186-.652V7.192a7.7,7.7,0,0,1,1.955-5.4Q165.813-1,171.538-1c3.91,0,6.8,1.024,8.564,3.072a7.71,7.71,0,0,1,1.769,4.934,1.292,1.292,0,0,1,0,.838l-.186.372A1.7,1.7,0,0,1,180.66,8.681ZM171.445.862q-4.887,0-6.982,2.234a4.084,4.084,0,0,0-1.024,1.676,14.9,14.9,0,0,1,8.006-2.048,15.143,15.143,0,0,1,8.006,2.048,3.956,3.956,0,0,0-.931-1.583C177.123,1.7,174.8.862,171.445.862Z" transform="translate(-83.86 0)"/>
    <path id="Path_202" data-name="Path 202" d="M234.127,103.263H230.4a.931.931,0,1,1,0-1.862h3.723a.879.879,0,0,1,.931.931A.933.933,0,0,1,234.127,103.263Z" transform="translate(-144.681 -91.23)"/>
  </g>
</svg>
