<svg xmlns="http://www.w3.org/2000/svg" width="7.992" height="10.273" viewBox="0 0 7.992 10.273">
  <g id="Hicon_Linear_Location" data-name="Hicon / Linear / Location" transform="translate(0.35 0.35)">
    <g id="Location">
      <path id="Vector" d="M7.292,3.923c0,1.307-1.326,3.257-2.379,4.6-.549.7-.824,1.051-1.267,1.051s-.718-.35-1.267-1.051C1.326,7.18,0,5.23,0,3.923A3.792,3.792,0,0,1,3.646,0,3.792,3.792,0,0,1,7.292,3.923Z" fill="none" stroke="#9ac225" stroke-width="0.7"/>
      <path id="Vector-2" data-name="Vector" d="M5,7.367A1.367,1.367,0,1,0,6.367,6,1.367,1.367,0,0,0,5,7.367Z" transform="translate(-2.721 -3.265)" fill="none" stroke="#9ac225" stroke-width="0.7"/>
    </g>
  </g>
</svg>
