<svg xmlns="http://www.w3.org/2000/svg" width="51.579" height="49" viewBox="0 0 51.579 49">
  <g id="market-svgrepo-com" transform="translate(0 -12)">
    <path id="Path_298" data-name="Path 298" d="M16,320.895h1.719V309.719H35.772v11.175h8.6V309.719H62.421v11.175H64.14V308H16Z" transform="translate(-14.281 -264.193)" fill="#e9a868"/>
    <path id="Path_299" data-name="Path 299" d="M62.421,430.579H44.368V428h-8.6v2.579H17.719V428H16v4.3H64.14V428H62.421Z" transform="translate(-14.281 -371.298)" fill="#d6805c"/>
    <path id="Path_300" data-name="Path 300" d="M63.281,290.5a.161.161,0,0,1-.161.161H60.863a.161.161,0,1,0-.322,0H58.284a.161.161,0,1,0-.322,0H55.705a.161.161,0,1,0-.322,0H53.126a.161.161,0,1,0-.322,0H50.547a.161.161,0,1,0-.322,0H47.968a.161.161,0,1,0-.322,0H45.389a.161.161,0,1,0-.322,0H42.81a.161.161,0,1,0-.322,0H40.231a.161.161,0,1,0-.322,0H37.652a.161.161,0,1,0-.322,0H35.073a.161.161,0,1,0-.322,0H32.495a.161.161,0,1,0-.322,0H29.916a.161.161,0,0,1-.161-.161.161.161,0,0,1-.161.161H27.337a.161.161,0,0,1-.161-.161.161.161,0,0,1-.161.161H24.758a.161.161,0,0,1-.161-.161.161.161,0,0,1-.161.161H22.179a.161.161,0,0,1-.161-.161.161.161,0,0,1-.161.161H19.6a.161.161,0,0,1-.161-.161.161.161,0,0,1-.161.161H17.021a.161.161,0,0,1-.161-.161.161.161,0,0,1-.161.161H16v1.719H64.14v-1.719h-.7A.161.161,0,0,1,63.281,290.5Z" transform="translate(-14.281 -248.573)" fill="#d6805c"/>
    <path id="Path_301" data-name="Path 301" d="M187.287,169.159h-.019l-.669,1.97h1.357Z" transform="translate(-166.548 -140.271)" fill="#bf515a"/>
    <path id="Path_302" data-name="Path 302" d="M224.49,168.46a.775.775,0,0,0-.868-.806h-.983v1.615h1A.757.757,0,0,0,224.49,168.46Z" transform="translate(-198.714 -138.928)" fill="#bf515a"/>
    <path id="Path_303" data-name="Path 303" d="M26.579,220H24v7.576a.161.161,0,0,0,.161.161h2.257a.161.161,0,0,0,.161-.161Z" transform="translate(-21.421 -185.649)" fill="#f2d057"/>
    <path id="Path_304" data-name="Path 304" d="M74.579,220H72v7.576a.161.161,0,0,0,.161.161h2.257a.161.161,0,0,0,.161-.161Z" transform="translate(-64.263 -185.649)" fill="#f2d057"/>
    <path id="Path_305" data-name="Path 305" d="M2.579,141.376V133.8H5.158v7.576a.161.161,0,0,0,.161.161H7.576a.161.161,0,0,0,.161-.161V133.8h2.579v7.576a.161.161,0,0,0,.161.161h2.257a.161.161,0,0,0,.161-.161V133.8h2.579v7.576a.161.161,0,0,0,.161.161h2.257a.161.161,0,0,0,.161-.161V133.8h2.579v7.576a.161.161,0,0,0,.161.161h2.257a.161.161,0,0,0,.161-.161V133.8h2.579v7.576a.161.161,0,0,0,.161.161h2.257a.161.161,0,0,0,.161-.161V133.8h2.579v7.576a.161.161,0,0,0,.161.161h2.257a.161.161,0,0,0,.161-.161V133.8h2.579v7.576a.161.161,0,0,0,.161.161h2.257a.161.161,0,0,0,.161-.161V133.8h2.579v7.576a.161.161,0,0,0,.161.161h2.257a.161.161,0,0,0,.161-.161V133.8h2.579v7.576a.161.161,0,0,0,.161.161h2.257a.161.161,0,0,0,.161-.161V133.8h.86v-7.952H10.316v-2.426a5.981,5.981,0,0,1-1.719,0v2.426H1.719V133.8H.322a.322.322,0,0,0-.322.322v7.253a.161.161,0,0,0,.161.161H2.418A.161.161,0,0,0,2.579,141.376ZM34.487,127.59h3.495v.6h-1.4v3.89h-.7v-3.89h-1.4v-.6Zm-3.3,0h2.851v.6H31.881V129.5h2.038v.579H31.881v1.394h2.154v.6H31.184Zm-4.022,0h.7v2.138h.028l1.877-2.138h.828l-1.78,1.989,1.93,2.5h-.865l-1.556-2.023-.461.526v1.5h-.7V127.59Zm-3.935,0h1.765a1.341,1.341,0,0,1,1.5,1.372,1.289,1.289,0,0,1-.871,1.282l1.008,1.836h-.806l-.915-1.727h-.983v1.727h-.7V127.59Zm-2.867,0h.753l1.621,4.491H22l-.411-1.214H19.874l-.411,1.214h-.725Zm-6.657,0h.806l1.453,3.545h.025l1.45-3.545h.809v4.491h-.638v-3.305h-.022l-1.354,3.271h-.517l-1.357-3.271h-.022v3.305H13.7V127.59Z" transform="translate(0 -99.449)" fill="#bf515a"/>
    <path id="Path_306" data-name="Path 306" d="M122.579,220H120v7.576a.161.161,0,0,0,.161.161h2.257a.161.161,0,0,0,.161-.161Z" transform="translate(-107.105 -185.649)" fill="#f2d057"/>
    <path id="Path_307" data-name="Path 307" d="M170.579,220H168v7.576a.161.161,0,0,0,.161.161h2.257a.161.161,0,0,0,.161-.161Z" transform="translate(-149.947 -185.649)" fill="#f2d057"/>
    <path id="Path_308" data-name="Path 308" d="M218.579,220H216v7.576a.161.161,0,0,0,.161.161h2.257a.161.161,0,0,0,.161-.161Z" transform="translate(-192.789 -185.649)" fill="#f2d057"/>
    <path id="Path_309" data-name="Path 309" d="M266.579,220H264v7.576a.161.161,0,0,0,.161.161h2.257a.161.161,0,0,0,.161-.161Z" transform="translate(-235.632 -185.649)" fill="#f2d057"/>
    <path id="Path_310" data-name="Path 310" d="M458.257,220H456v7.576a.161.161,0,0,0,.161.161h2.257a.161.161,0,0,0,.161-.161v-7.253A.322.322,0,0,0,458.257,220Z" transform="translate(-407 -185.649)" fill="#f2d057"/>
    <path id="Path_311" data-name="Path 311" d="M43.175,359.175,32,348v11.175Z" transform="translate(-28.561 -299.895)" fill="#95ffff"/>
    <path id="Path_312" data-name="Path 312" d="M291.175,359.175,280,348v11.175Z" transform="translate(-249.912 -299.895)" fill="#95ffff"/>
    <path id="Path_313" data-name="Path 313" d="M314.579,220H312v7.576a.161.161,0,0,0,.161.161h2.257a.161.161,0,0,0,.161-.161Z" transform="translate(-278.474 -185.649)" fill="#f2d057"/>
    <path id="Path_314" data-name="Path 314" d="M362.579,220H360v7.576a.161.161,0,0,0,.161.161h2.257a.161.161,0,0,0,.161-.161Z" transform="translate(-321.316 -185.649)" fill="#f2d057"/>
    <path id="Path_315" data-name="Path 315" d="M410.579,220H408v7.576a.161.161,0,0,0,.161.161h2.257a.161.161,0,0,0,.161-.161Z" transform="translate(-364.158 -185.649)" fill="#f2d057"/>
    <rect id="Rectangle_658" data-name="Rectangle 658" width="17" height="3" transform="translate(3.489 45)" fill="#6eb1e2"/>
    <rect id="Rectangle_659" data-name="Rectangle 659" width="19" height="3" transform="translate(29.489 45)" fill="#6eb1e2"/>
    <path id="Path_316" data-name="Path 316" d="M43.175,359.175h6.877V348H32Z" transform="translate(-28.561 -299.895)" fill="#80d7f0"/>
    <path id="Path_317" data-name="Path 317" d="M291.175,359.175h6.877V348H280Z" transform="translate(-249.912 -299.895)" fill="#80d7f0"/>
    <path id="Path_318" data-name="Path 318" d="M38.877,23.973a5.98,5.98,0,1,0-.86.062A6.018,6.018,0,0,0,38.877,23.973Zm-5.158-5.955a4.3,4.3,0,1,1,4.3,4.3A4.3,4.3,0,0,1,33.719,18.018Z" transform="translate(-28.561)" fill="#f2d057"/>
    <path id="Path_319" data-name="Path 319" d="M56.6,32.3a4.3,4.3,0,1,0-4.3,4.3A4.3,4.3,0,0,0,56.6,32.3Zm-6.877,0A2.579,2.579,0,1,1,52.3,34.877,2.579,2.579,0,0,1,49.719,32.3Z" transform="translate(-42.842 -14.281)" fill="#fff"/>
    <circle id="Ellipse_121" data-name="Ellipse 121" cx="3" cy="3" r="3" transform="translate(6.489 15)" fill="#bf515a"/>
    <path id="Path_320" data-name="Path 320" d="M128.146,163.395h.022l1.357,3.271h.517l1.354-3.271h.022V166.7h.638v-4.491h-.809l-1.45,3.545h-.025l-1.453-3.545h-.806V166.7h.635Z" transform="translate(-113.809 -134.068)" fill="#f2d057"/>
    <path id="Path_321" data-name="Path 321" d="M175.513,165.486h1.712l.411,1.214h.738l-1.621-4.491H176l-1.621,4.491h.725Zm.846-2.53h.019l.669,1.97H175.69Z" transform="translate(-155.639 -134.068)" fill="#f2d057"/>
    <path id="Path_322" data-name="Path 322" d="M216.847,164.973h.983l.915,1.727h.806l-1.008-1.836a1.289,1.289,0,0,0,.871-1.282,1.341,1.341,0,0,0-1.5-1.372H216.15V166.7h.7v-1.727Zm0-2.178h.983a.775.775,0,0,1,.868.806.757.757,0,0,1-.85.809h-1v-1.615Z" transform="translate(-192.923 -134.068)" fill="#f2d057"/>
    <path id="Path_323" data-name="Path 323" d="M253.467,165.2l.461-.526,1.556,2.023h.865l-1.929-2.5,1.78-1.989h-.828l-1.877,2.138h-.028v-2.138h-.7V166.7h.7Z" transform="translate(-225.608 -134.068)" fill="#f2d057"/>
    <path id="Path_324" data-name="Path 324" d="M293.052,166.1H290.9V164.7h2.038v-.579H290.9V162.81h2.154v-.6H290.2V166.7h2.851Z" transform="translate(-259.017 -134.068)" fill="#f2d057"/>
    <path id="Path_325" data-name="Path 325" d="M322.343,166.7h.7v-3.89h1.4v-.6h-3.495v.6h1.4Z" transform="translate(-286.456 -134.068)" fill="#f2d057"/>
  </g>
</svg>
